<?xml version="1.0" encoding="UTF-8" standalone="yes"?><svg xmlns="http://www.w3.org/2000/svg" xmlns:xlink="http://www.w3.org/1999/xlink" height="520px" style="width:744px;height:520px;" version="1.1" viewBox="0 0 744 520" width="744px"><defs><filter height="300%" id="f1" width="300%" x="-1" y="-1"><feGaussianBlur result="blurOut" stdDeviation="2.0"/><feColorMatrix in="blurOut" result="blurOut2" type="matrix" values="0 0 0 0 0 0 0 0 0 0 0 0 0 0 0 0 0 0 .4 0"/><feOffset dx="4.0" dy="4.0" in="blurOut2" result="blurOut3"/><feBlend in="SourceGraphic" in2="blurOut3" mode="normal"/></filter></defs><g><text fill="#000000" font-family="sans-serif" font-size="18" lengthAdjust="spacingAndGlyphs" textLength="400" x="177" y="16.708">OOP 2016 - Temporary Database - DIAGRAM</text><rect fill="#FEFECE" filter="url(#f1)" height="73.6094" style="stroke: #A80036; stroke-width: 1.5;" width="276" x="35" y="277.9531"/><ellipse cx="140.25" cy="293.9531" fill="#B4A7E5" rx="11" ry="11" style="stroke: #A80036; stroke-width: 1.0;"/><path d="M136.1719,289.7188 L136.1719,287.5625 L143.5625,287.5625 L143.5625,289.7188 L141.0938,289.7188 L141.0938,297.7969 L143.5625,297.7969 L143.5625,299.9531 L136.1719,299.9531 L136.1719,297.7969 L138.6406,297.7969 L138.6406,289.7188 L136.1719,289.7188 Z "/><text fill="#000000" font-family="sans-serif" font-size="12" font-style="italic" lengthAdjust="spacingAndGlyphs" textLength="57" x="160.75" y="298.1074">SMObject</text><line style="stroke: #A80036; stroke-width: 1.5;" x1="36" x2="310" y1="309.9531" y2="309.9531"/><line style="stroke: #A80036; stroke-width: 1.5;" x1="36" x2="310" y1="317.9531" y2="317.9531"/><ellipse cx="46" cy="329.8555" fill="#84BE84" rx="3" ry="3" style="stroke: #038048; stroke-width: 1.0;"/><text fill="#000000" font-family="sans-serif" font-size="11" lengthAdjust="spacingAndGlyphs" textLength="250" x="55" y="332.1636">virtual std::stringstream getSerializedData()</text><ellipse cx="46" cy="342.6602" fill="#84BE84" rx="3" ry="3" style="stroke: #038048; stroke-width: 1.0;"/><text fill="#000000" font-family="sans-serif" font-size="11" lengthAdjust="spacingAndGlyphs" textLength="109" x="55" y="344.9683">virtual ~SMObject()</text><rect fill="#FEFECE" filter="url(#f1)" height="99.2188" style="stroke: #A80036; stroke-width: 1.5;" width="270" x="38" y="411.9531"/><ellipse cx="129.25" cy="427.9531" fill="#ADD1B2" rx="11" ry="11" style="stroke: #A80036; stroke-width: 1.0;"/><path d="M132.2188,433.5938 Q131.6406,433.8906 131,434.0391 Q130.3594,434.1875 129.6563,434.1875 Q127.1563,434.1875 125.8359,432.5391 Q124.5156,430.8906 124.5156,427.7656 Q124.5156,424.6406 125.8359,422.9844 Q127.1563,421.3281 129.6563,421.3281 Q130.3594,421.3281 131.0078,421.4844 Q131.6563,421.6406 132.2188,421.9375 L132.2188,424.6563 Q131.5938,424.0781 131,423.8047 Q130.4063,423.5313 129.7813,423.5313 Q128.4375,423.5313 127.75,424.6016 Q127.0625,425.6719 127.0625,427.7656 Q127.0625,429.8594 127.75,430.9297 Q128.4375,432 129.7813,432 Q130.4063,432 131,431.7266 Q131.5938,431.4531 132.2188,430.875 L132.2188,433.5938 Z "/><text fill="#000000" font-family="sans-serif" font-size="12" lengthAdjust="spacingAndGlyphs" textLength="79" x="149.75" y="432.1074">SMContainer</text><line style="stroke: #A80036; stroke-width: 1.5;" x1="39" x2="307" y1="443.9531" y2="443.9531"/><ellipse cx="49" cy="455.8555" fill="none" rx="3" ry="3" style="stroke: #038048; stroke-width: 1.0;"/><text fill="#000000" font-family="sans-serif" font-size="11" lengthAdjust="spacingAndGlyphs" textLength="84" x="58" y="458.1636">SMString data;</text><ellipse cx="49" cy="468.6602" fill="none" rx="3" ry="3" style="stroke: #038048; stroke-width: 1.0;"/><text fill="#000000" font-family="sans-serif" font-size="11" lengthAdjust="spacingAndGlyphs" textLength="83" x="58" y="470.9683">SMString type;</text><line style="stroke: #A80036; stroke-width: 1.5;" x1="39" x2="307" y1="477.5625" y2="477.5625"/><ellipse cx="49" cy="489.4648" fill="#84BE84" rx="3" ry="3" style="stroke: #038048; stroke-width: 1.0;"/><text fill="#000000" font-family="sans-serif" font-size="11" lengthAdjust="spacingAndGlyphs" textLength="244" x="58" y="491.7729">SMContainer(SMObject* obj, CharAllocator)</text><ellipse cx="49" cy="502.2695" fill="#84BE84" rx="3" ry="3" style="stroke: #038048; stroke-width: 1.0;"/><text fill="#000000" font-family="sans-serif" font-size="11" lengthAdjust="spacingAndGlyphs" textLength="127" x="58" y="504.5776">void getObject(T&amp; obj)</text><rect fill="#FEFECE" filter="url(#f1)" height="188.8516" style="stroke: #A80036; stroke-width: 1.5;" width="361" x="374.5" y="28.9531"/><ellipse cx="519.25" cy="44.9531" fill="#ADD1B2" rx="11" ry="11" style="stroke: #A80036; stroke-width: 1.0;"/><path d="M522.2188,50.5938 Q521.6406,50.8906 521,51.0391 Q520.3594,51.1875 519.6563,51.1875 Q517.1563,51.1875 515.8359,49.5391 Q514.5156,47.8906 514.5156,44.7656 Q514.5156,41.6406 515.8359,39.9844 Q517.1563,38.3281 519.6563,38.3281 Q520.3594,38.3281 521.0078,38.4844 Q521.6563,38.6406 522.2188,38.9375 L522.2188,41.6563 Q521.5938,41.0781 521,40.8047 Q520.4063,40.5313 519.7813,40.5313 Q518.4375,40.5313 517.75,41.6016 Q517.0625,42.6719 517.0625,44.7656 Q517.0625,46.8594 517.75,47.9297 Q518.4375,49 519.7813,49 Q520.4063,49 521,48.7266 Q521.5938,48.4531 522.2188,47.875 L522.2188,50.5938 Z "/><text fill="#000000" font-family="sans-serif" font-size="12" lengthAdjust="spacingAndGlyphs" textLength="63" x="539.75" y="49.1074">SMSystem</text><line style="stroke: #A80036; stroke-width: 1.5;" x1="375.5" x2="734.5" y1="60.9531" y2="60.9531"/><rect fill="none" height="6" style="stroke: #C82930; stroke-width: 1.0;" width="6" x="382.5" y="69.8555"/><text fill="#000000" font-family="sans-serif" font-size="11" lengthAdjust="spacingAndGlyphs" textLength="203" x="394.5" y="75.1636">managed_shared_memory memory</text><rect fill="none" height="6" style="stroke: #C82930; stroke-width: 1.0;" width="6" x="382.5" y="82.6602"/><text fill="#000000" font-family="sans-serif" font-size="11" lengthAdjust="spacingAndGlyphs" textLength="144" x="394.5" y="87.9683">interprocess_mutex* mtx</text><rect fill="none" height="6" style="stroke: #C82930; stroke-width: 1.0;" width="6" x="382.5" y="95.4648"/><text fill="#000000" font-family="sans-serif" font-size="11" lengthAdjust="spacingAndGlyphs" textLength="154" x="394.5" y="100.7729">CharAllocator dataAllocator</text><line style="stroke: #A80036; stroke-width: 1.5;" x1="375.5" x2="734.5" y1="107.3672" y2="107.3672"/><ellipse cx="385.5" cy="119.2695" fill="#84BE84" rx="3" ry="3" style="stroke: #038048; stroke-width: 1.0;"/><text fill="#000000" font-family="sans-serif" font-size="11" lengthAdjust="spacingAndGlyphs" textLength="68" x="394.5" y="121.5776">SMSystem()</text><ellipse cx="385.5" cy="132.0742" fill="#84BE84" rx="3" ry="3" style="stroke: #038048; stroke-width: 1.0;"/><text fill="#000000" font-family="sans-serif" font-size="11" lengthAdjust="spacingAndGlyphs" textLength="77" x="394.5" y="134.3823">~SMSystem()</text><ellipse cx="385.5" cy="144.8789" fill="#84BE84" rx="3" ry="3" style="stroke: #038048; stroke-width: 1.0;"/><text fill="#000000" font-family="sans-serif" font-size="11" lengthAdjust="spacingAndGlyphs" textLength="167" x="394.5" y="147.187">void remove(const char* key)</text><ellipse cx="385.5" cy="157.6836" fill="#84BE84" rx="3" ry="3" style="stroke: #038048; stroke-width: 1.0;"/><text fill="#000000" font-family="sans-serif" font-size="11" lengthAdjust="spacingAndGlyphs" textLength="173" x="394.5" y="159.9917">bool contains(const char* key)</text><text fill="#000000" font-family="sans-serif" font-size="11" lengthAdjust="spacingAndGlyphs" textLength="0" x="398.5" y="172.7964"/><ellipse cx="385.5" cy="183.293" fill="#84BE84" rx="3" ry="3" style="stroke: #038048; stroke-width: 1.0;"/><text fill="#000000" font-family="sans-serif" font-size="11" lengthAdjust="spacingAndGlyphs" textLength="328" x="394.5" y="185.6011">template&lt;class T&gt; void fetch(const char* key, T&amp; object)</text><ellipse cx="385.5" cy="196.0977" fill="#84BE84" rx="3" ry="3" style="stroke: #038048; stroke-width: 1.0;"/><text fill="#000000" font-family="sans-serif" font-size="11" lengthAdjust="spacingAndGlyphs" textLength="329" x="394.5" y="198.4058">template&lt;class T&gt; void insert(const char* key, T* object)</text><ellipse cx="385.5" cy="208.9023" fill="#84BE84" rx="3" ry="3" style="stroke: #038048; stroke-width: 1.0;"/><text fill="#000000" font-family="sans-serif" font-size="11" lengthAdjust="spacingAndGlyphs" textLength="335" x="394.5" y="211.2104">template&lt;class T&gt; void update(const char* key, T* object)</text><rect fill="#FEFECE" filter="url(#f1)" height="188.8516" style="stroke: #A80036; stroke-width: 1.5;" width="334" x="6" y="28.9531"/><ellipse cx="145.25" cy="44.9531" fill="#ADD1B2" rx="11" ry="11" style="stroke: #A80036; stroke-width: 1.0;"/><path d="M148.2188,50.5938 Q147.6406,50.8906 147,51.0391 Q146.3594,51.1875 145.6563,51.1875 Q143.1563,51.1875 141.8359,49.5391 Q140.5156,47.8906 140.5156,44.7656 Q140.5156,41.6406 141.8359,39.9844 Q143.1563,38.3281 145.6563,38.3281 Q146.3594,38.3281 147.0078,38.4844 Q147.6563,38.6406 148.2188,38.9375 L148.2188,41.6563 Q147.5938,41.0781 147,40.8047 Q146.4063,40.5313 145.7813,40.5313 Q144.4375,40.5313 143.75,41.6016 Q143.0625,42.6719 143.0625,44.7656 Q143.0625,46.8594 143.75,47.9297 Q144.4375,49 145.7813,49 Q146.4063,49 147,48.7266 Q147.5938,48.4531 148.2188,47.875 L148.2188,50.5938 Z "/><text fill="#000000" font-family="sans-serif" font-size="12" lengthAdjust="spacingAndGlyphs" textLength="47" x="165.75" y="49.1074">SMType</text><line style="stroke: #A80036; stroke-width: 1.5;" x1="7" x2="339" y1="60.9531" y2="60.9531"/><ellipse cx="17" cy="72.8555" fill="none" rx="3" ry="3" style="stroke: #038048; stroke-width: 1.0;"/><text fill="#000000" font-family="sans-serif" font-size="11" lengthAdjust="spacingAndGlyphs" textLength="27" x="26" y="75.1636">T val</text><text fill="#000000" font-family="sans-serif" font-size="11" lengthAdjust="spacingAndGlyphs" textLength="0" x="30" y="87.9683"/><text fill="#000000" font-family="sans-serif" font-size="11" lengthAdjust="spacingAndGlyphs" textLength="0" x="30" y="100.7729"/><text fill="#000000" font-family="sans-serif" font-size="11" lengthAdjust="spacingAndGlyphs" textLength="0" x="30" y="113.5776"/><rect fill="none" height="6" style="stroke: #C82930; stroke-width: 1.0;" width="6" x="14" y="121.0742"/><text fill="#000000" font-family="sans-serif" font-size="11" lengthAdjust="spacingAndGlyphs" textLength="227" x="26" y="126.3823">friend class boost::serialization::access</text><rect fill="none" height="6" style="stroke: #C82930; stroke-width: 1.0;" width="6" x="14" y="133.8789"/><text fill="#000000" font-family="sans-serif" font-size="11" lengthAdjust="spacingAndGlyphs" textLength="173" x="26" y="139.187">template &lt;typename Archive&gt;</text><line style="stroke: #A80036; stroke-width: 1.5;" x1="7" x2="339" y1="145.7813" y2="145.7813"/><ellipse cx="17" cy="157.6836" fill="#84BE84" rx="3" ry="3" style="stroke: #038048; stroke-width: 1.0;"/><text fill="#000000" font-family="sans-serif" font-size="11" lengthAdjust="spacingAndGlyphs" textLength="66" x="26" y="159.9917">SMType(){}</text><ellipse cx="17" cy="170.4883" fill="#84BE84" rx="3" ry="3" style="stroke: #038048; stroke-width: 1.0;"/><text fill="#000000" font-family="sans-serif" font-size="11" lengthAdjust="spacingAndGlyphs" textLength="159" x="26" y="172.7964">SMType(T value) : val(value)</text><text fill="#000000" font-family="sans-serif" font-size="11" lengthAdjust="spacingAndGlyphs" textLength="0" x="30" y="185.6011"/><ellipse cx="17" cy="196.0977" fill="#84BE84" rx="3" ry="3" style="stroke: #038048; stroke-width: 1.0;"/><text fill="#000000" font-family="sans-serif" font-size="11" lengthAdjust="spacingAndGlyphs" textLength="262" x="26" y="198.4058">std::stringstream getSerializedData() override</text><rect fill="#F24D5C" height="6" style="stroke: #C82930; stroke-width: 1.0;" width="6" x="14" y="205.9023"/><text fill="#000000" font-family="sans-serif" font-size="11" lengthAdjust="spacingAndGlyphs" textLength="308" x="26" y="211.2104">void serialize(Archive &amp;ar, const unsigned int version)</text><path d="M173,218.0931 C173,231.5461 173,245.0301 173,257.4581 " fill="none" style="stroke: #A80036; stroke-width: 1.0;"/><polygon fill="none" points="180,257.8151,173,277.8151,166,257.8151,180,257.8151" style="stroke: #A80036; stroke-width: 1.0;"/><path d="M173,352.0441 C173,368.5481 173,388.4451 173,406.6631 " fill="none" style="stroke: #A80036; stroke-width: 1.0; stroke-dasharray: 7.0,7.0;"/><polygon fill="#A80036" points="173,411.7523,177,402.7523,173,406.7523,169,402.7523,173,411.7523" style="stroke: #A80036; stroke-width: 1.0;"/></g></svg>