<?xml version="1.0" encoding="UTF-8" standalone="yes"?><svg xmlns="http://www.w3.org/2000/svg" xmlns:xlink="http://www.w3.org/1999/xlink" height="552px" style="width:681px;height:552px;" version="1.1" viewBox="0 0 681 552" width="681px"><defs><filter height="300%" id="f1" width="300%" x="-1" y="-1"><feGaussianBlur result="blurOut" stdDeviation="2.0"/><feColorMatrix in="blurOut" result="blurOut2" type="matrix" values="0 0 0 0 0 0 0 0 0 0 0 0 0 0 0 0 0 0 .4 0"/><feOffset dx="4.0" dy="4.0" in="blurOut2" result="blurOut3"/><feBlend in="SourceGraphic" in2="blurOut3" mode="normal"/></filter></defs><g><text fill="#000000" font-family="sans-serif" font-size="18" lengthAdjust="spacingAndGlyphs" textLength="400" x="145.5" y="16.708">OOP 2016 - Temporary Database - DIAGRAM</text><rect fill="#FEFECE" filter="url(#f1)" height="73.6094" style="stroke: #A80036; stroke-width: 1.5;" width="276" x="178" y="469.9531"/><ellipse cx="282.75" cy="485.9531" fill="#ADD1B2" rx="11" ry="11" style="stroke: #A80036; stroke-width: 1.0;"/><path d="M285.7188,491.5938 Q285.1406,491.8906 284.5,492.0391 Q283.8594,492.1875 283.1563,492.1875 Q280.6563,492.1875 279.3359,490.5391 Q278.0156,488.8906 278.0156,485.7656 Q278.0156,482.6406 279.3359,480.9844 Q280.6563,479.3281 283.1563,479.3281 Q283.8594,479.3281 284.5078,479.4844 Q285.1563,479.6406 285.7188,479.9375 L285.7188,482.6563 Q285.0938,482.0781 284.5,481.8047 Q283.9063,481.5313 283.2813,481.5313 Q281.9375,481.5313 281.25,482.6016 Q280.5625,483.6719 280.5625,485.7656 Q280.5625,487.8594 281.25,488.9297 Q281.9375,490 283.2813,490 Q283.9063,490 284.5,489.7266 Q285.0938,489.4531 285.7188,488.875 L285.7188,491.5938 Z "/><text fill="#000000" font-family="sans-serif" font-size="12" lengthAdjust="spacingAndGlyphs" textLength="58" x="303.25" y="490.1074">SMObject</text><line style="stroke: #A80036; stroke-width: 1.5;" x1="179" x2="453" y1="501.9531" y2="501.9531"/><line style="stroke: #A80036; stroke-width: 1.5;" x1="179" x2="453" y1="509.9531" y2="509.9531"/><ellipse cx="189" cy="521.8555" fill="#84BE84" rx="3" ry="3" style="stroke: #038048; stroke-width: 1.0;"/><text fill="#000000" font-family="sans-serif" font-size="11" lengthAdjust="spacingAndGlyphs" textLength="250" x="198" y="524.1636">virtual std::stringstream getSerializedData()</text><ellipse cx="189" cy="534.6602" fill="#84BE84" rx="3" ry="3" style="stroke: #038048; stroke-width: 1.0;"/><text fill="#000000" font-family="sans-serif" font-size="11" lengthAdjust="spacingAndGlyphs" textLength="109" x="198" y="536.9683">virtual ~SMObject()</text><rect fill="#FEFECE" filter="url(#f1)" height="112.0234" style="stroke: #A80036; stroke-width: 1.5;" width="270" x="6" y="163.4531"/><ellipse cx="97.25" cy="179.4531" fill="#ADD1B2" rx="11" ry="11" style="stroke: #A80036; stroke-width: 1.0;"/><path d="M100.2188,185.0938 Q99.6406,185.3906 99,185.5391 Q98.3594,185.6875 97.6563,185.6875 Q95.1563,185.6875 93.8359,184.0391 Q92.5156,182.3906 92.5156,179.2656 Q92.5156,176.1406 93.8359,174.4844 Q95.1563,172.8281 97.6563,172.8281 Q98.3594,172.8281 99.0078,172.9844 Q99.6563,173.1406 100.2188,173.4375 L100.2188,176.1563 Q99.5938,175.5781 99,175.3047 Q98.4063,175.0313 97.7813,175.0313 Q96.4375,175.0313 95.75,176.1016 Q95.0625,177.1719 95.0625,179.2656 Q95.0625,181.3594 95.75,182.4297 Q96.4375,183.5 97.7813,183.5 Q98.4063,183.5 99,183.2266 Q99.5938,182.9531 100.2188,182.375 L100.2188,185.0938 Z "/><text fill="#000000" font-family="sans-serif" font-size="12" lengthAdjust="spacingAndGlyphs" textLength="79" x="117.75" y="183.6074">SMContainer</text><line style="stroke: #A80036; stroke-width: 1.5;" x1="7" x2="275" y1="195.4531" y2="195.4531"/><ellipse cx="17" cy="207.3555" fill="none" rx="3" ry="3" style="stroke: #038048; stroke-width: 1.0;"/><text fill="#000000" font-family="sans-serif" font-size="11" lengthAdjust="spacingAndGlyphs" textLength="84" x="26" y="209.6636">SMString data;</text><ellipse cx="17" cy="220.1602" fill="none" rx="3" ry="3" style="stroke: #038048; stroke-width: 1.0;"/><text fill="#000000" font-family="sans-serif" font-size="11" lengthAdjust="spacingAndGlyphs" textLength="83" x="26" y="222.4683">SMString type;</text><ellipse cx="17" cy="232.9648" fill="none" rx="3" ry="3" style="stroke: #038048; stroke-width: 1.0;"/><text fill="#000000" font-family="sans-serif" font-size="11" lengthAdjust="spacingAndGlyphs" textLength="109" x="26" y="235.2729">template&lt;class T&gt;</text><line style="stroke: #A80036; stroke-width: 1.5;" x1="7" x2="275" y1="241.8672" y2="241.8672"/><ellipse cx="17" cy="253.7695" fill="#84BE84" rx="3" ry="3" style="stroke: #038048; stroke-width: 1.0;"/><text fill="#000000" font-family="sans-serif" font-size="11" lengthAdjust="spacingAndGlyphs" textLength="244" x="26" y="256.0776">SMContainer(SMObject* obj, CharAllocator)</text><ellipse cx="17" cy="266.5742" fill="#84BE84" rx="3" ry="3" style="stroke: #038048; stroke-width: 1.0;"/><text fill="#000000" font-family="sans-serif" font-size="11" lengthAdjust="spacingAndGlyphs" textLength="127" x="26" y="268.8823">void getObject(T&amp; obj)</text><rect fill="#FEFECE" filter="url(#f1)" height="380.9219" style="stroke: #A80036; stroke-width: 1.5;" width="361" x="311.5" y="28.9531"/><ellipse cx="456.25" cy="44.9531" fill="#ADD1B2" rx="11" ry="11" style="stroke: #A80036; stroke-width: 1.0;"/><path d="M459.2188,50.5938 Q458.6406,50.8906 458,51.0391 Q457.3594,51.1875 456.6563,51.1875 Q454.1563,51.1875 452.8359,49.5391 Q451.5156,47.8906 451.5156,44.7656 Q451.5156,41.6406 452.8359,39.9844 Q454.1563,38.3281 456.6563,38.3281 Q457.3594,38.3281 458.0078,38.4844 Q458.6563,38.6406 459.2188,38.9375 L459.2188,41.6563 Q458.5938,41.0781 458,40.8047 Q457.4063,40.5313 456.7813,40.5313 Q455.4375,40.5313 454.75,41.6016 Q454.0625,42.6719 454.0625,44.7656 Q454.0625,46.8594 454.75,47.9297 Q455.4375,49 456.7813,49 Q457.4063,49 458,48.7266 Q458.5938,48.4531 459.2188,47.875 L459.2188,50.5938 Z "/><text fill="#000000" font-family="sans-serif" font-size="12" lengthAdjust="spacingAndGlyphs" textLength="63" x="476.75" y="49.1074">SMSystem</text><line style="stroke: #A80036; stroke-width: 1.5;" x1="312.5" x2="671.5" y1="60.9531" y2="60.9531"/><rect fill="none" height="6" style="stroke: #C82930; stroke-width: 1.0;" width="6" x="319.5" y="69.8555"/><text fill="#000000" font-family="sans-serif" font-size="11" lengthAdjust="spacingAndGlyphs" textLength="203" x="331.5" y="75.1636">managed_shared_memory memory</text><rect fill="none" height="6" style="stroke: #C82930; stroke-width: 1.0;" width="6" x="319.5" y="82.6602"/><text fill="#000000" font-family="sans-serif" font-size="11" lengthAdjust="spacingAndGlyphs" textLength="144" x="331.5" y="87.9683">interprocess_mutex* mtx</text><rect fill="none" height="6" style="stroke: #C82930; stroke-width: 1.0;" width="6" x="319.5" y="95.4648"/><text fill="#000000" font-family="sans-serif" font-size="11" lengthAdjust="spacingAndGlyphs" textLength="154" x="331.5" y="100.7729">CharAllocator dataAllocator</text><text fill="#000000" font-family="sans-serif" font-size="11" lengthAdjust="spacingAndGlyphs" textLength="0" x="335.5" y="113.5776"/><text fill="#000000" font-family="sans-serif" font-size="11" lengthAdjust="spacingAndGlyphs" textLength="0" x="335.5" y="126.3823"/><text fill="#000000" font-family="sans-serif" font-size="11" lengthAdjust="spacingAndGlyphs" textLength="0" x="335.5" y="139.187"/><text fill="#000000" font-family="sans-serif" font-size="11" lengthAdjust="spacingAndGlyphs" textLength="0" x="335.5" y="151.9917"/><ellipse cx="322.5" cy="162.4883" fill="none" rx="3" ry="3" style="stroke: #038048; stroke-width: 1.0;"/><text fill="#000000" font-family="sans-serif" font-size="11" lengthAdjust="spacingAndGlyphs" textLength="27" x="331.5" y="164.7964">T val</text><text fill="#000000" font-family="sans-serif" font-size="11" lengthAdjust="spacingAndGlyphs" textLength="0" x="335.5" y="177.6011"/><text fill="#000000" font-family="sans-serif" font-size="11" lengthAdjust="spacingAndGlyphs" textLength="0" x="335.5" y="190.4058"/><text fill="#000000" font-family="sans-serif" font-size="11" lengthAdjust="spacingAndGlyphs" textLength="0" x="335.5" y="203.2104"/><rect fill="none" height="6" style="stroke: #C82930; stroke-width: 1.0;" width="6" x="319.5" y="210.707"/><text fill="#000000" font-family="sans-serif" font-size="11" lengthAdjust="spacingAndGlyphs" textLength="227" x="331.5" y="216.0151">friend class boost::serialization::access</text><rect fill="none" height="6" style="stroke: #C82930; stroke-width: 1.0;" width="6" x="319.5" y="223.5117"/><text fill="#000000" font-family="sans-serif" font-size="11" lengthAdjust="spacingAndGlyphs" textLength="173" x="331.5" y="228.8198">template &lt;typename Archive&gt;</text><line style="stroke: #A80036; stroke-width: 1.5;" x1="312.5" x2="671.5" y1="235.4141" y2="235.4141"/><ellipse cx="322.5" cy="247.3164" fill="#84BE84" rx="3" ry="3" style="stroke: #038048; stroke-width: 1.0;"/><text fill="#000000" font-family="sans-serif" font-size="11" lengthAdjust="spacingAndGlyphs" textLength="68" x="331.5" y="249.6245">SMSystem()</text><ellipse cx="322.5" cy="260.1211" fill="#84BE84" rx="3" ry="3" style="stroke: #038048; stroke-width: 1.0;"/><text fill="#000000" font-family="sans-serif" font-size="11" lengthAdjust="spacingAndGlyphs" textLength="77" x="331.5" y="262.4292">~SMSystem()</text><ellipse cx="322.5" cy="272.9258" fill="#84BE84" rx="3" ry="3" style="stroke: #038048; stroke-width: 1.0;"/><text fill="#000000" font-family="sans-serif" font-size="11" lengthAdjust="spacingAndGlyphs" textLength="167" x="331.5" y="275.2339">void remove(const char* key)</text><ellipse cx="322.5" cy="285.7305" fill="#84BE84" rx="3" ry="3" style="stroke: #038048; stroke-width: 1.0;"/><text fill="#000000" font-family="sans-serif" font-size="11" lengthAdjust="spacingAndGlyphs" textLength="173" x="331.5" y="288.0386">bool contains(const char* key)</text><text fill="#000000" font-family="sans-serif" font-size="11" lengthAdjust="spacingAndGlyphs" textLength="0" x="335.5" y="300.8433"/><ellipse cx="322.5" cy="311.3398" fill="#84BE84" rx="3" ry="3" style="stroke: #038048; stroke-width: 1.0;"/><text fill="#000000" font-family="sans-serif" font-size="11" lengthAdjust="spacingAndGlyphs" textLength="328" x="331.5" y="313.6479">template&lt;class T&gt; void fetch(const char* key, T&amp; object)</text><ellipse cx="322.5" cy="324.1445" fill="#84BE84" rx="3" ry="3" style="stroke: #038048; stroke-width: 1.0;"/><text fill="#000000" font-family="sans-serif" font-size="11" lengthAdjust="spacingAndGlyphs" textLength="329" x="331.5" y="326.4526">template&lt;class T&gt; void insert(const char* key, T* object)</text><ellipse cx="322.5" cy="336.9492" fill="#84BE84" rx="3" ry="3" style="stroke: #038048; stroke-width: 1.0;"/><text fill="#000000" font-family="sans-serif" font-size="11" lengthAdjust="spacingAndGlyphs" textLength="335" x="331.5" y="339.2573">template&lt;class T&gt; void update(const char* key, T* object)</text><ellipse cx="322.5" cy="349.7539" fill="#84BE84" rx="3" ry="3" style="stroke: #038048; stroke-width: 1.0;"/><text fill="#000000" font-family="sans-serif" font-size="11" lengthAdjust="spacingAndGlyphs" textLength="66" x="331.5" y="352.062">SMType(){}</text><ellipse cx="322.5" cy="362.5586" fill="#84BE84" rx="3" ry="3" style="stroke: #038048; stroke-width: 1.0;"/><text fill="#000000" font-family="sans-serif" font-size="11" lengthAdjust="spacingAndGlyphs" textLength="159" x="331.5" y="364.8667">SMType(T value) : val(value)</text><text fill="#000000" font-family="sans-serif" font-size="11" lengthAdjust="spacingAndGlyphs" textLength="0" x="335.5" y="377.6714"/><ellipse cx="322.5" cy="388.168" fill="#84BE84" rx="3" ry="3" style="stroke: #038048; stroke-width: 1.0;"/><text fill="#000000" font-family="sans-serif" font-size="11" lengthAdjust="spacingAndGlyphs" textLength="262" x="331.5" y="390.4761">std::stringstream getSerializedData() override</text><rect fill="#F24D5C" height="6" style="stroke: #C82930; stroke-width: 1.0;" width="6" x="319.5" y="397.9727"/><text fill="#000000" font-family="sans-serif" font-size="11" lengthAdjust="spacingAndGlyphs" textLength="308" x="331.5" y="403.2808">void serialize(Archive &amp;ar, const unsigned int version)</text><path d="M375.095,410.0911 C365.796,425.1771 356.981,439.4761 349.134,452.2046 " fill="none" style="stroke: #A80036; stroke-width: 1.0;"/><polygon fill="none" points="354.841,456.2865,338.387,469.6381,342.923,448.9398,354.841,456.2865" style="stroke: #A80036; stroke-width: 1.0;"/><path d="M174.742,275.5001 C206.036,326.5551 252.309,402.0461 283.274,452.5634 " fill="none" style="stroke: #A80036; stroke-width: 1.0;"/><polygon fill="none" points="289.252,448.9215,293.736,469.6313,277.316,456.2379,289.252,448.9215" style="stroke: #A80036; stroke-width: 1.0;"/></g></svg>