<?xml version="1.0" encoding="UTF-8" standalone="yes"?><svg xmlns="http://www.w3.org/2000/svg" xmlns:xlink="http://www.w3.org/1999/xlink" height="520px" style="width:850px;height:520px;" version="1.1" viewBox="0 0 850 520" width="850px"><defs><filter height="300%" id="f1" width="300%" x="-1" y="-1"><feGaussianBlur result="blurOut" stdDeviation="2.0"/><feColorMatrix in="blurOut" result="blurOut2" type="matrix" values="0 0 0 0 0 0 0 0 0 0 0 0 0 0 0 0 0 0 .4 0"/><feOffset dx="4.0" dy="4.0" in="blurOut2" result="blurOut3"/><feBlend in="SourceGraphic" in2="blurOut3" mode="normal"/></filter></defs><g><text fill="#000000" font-family="sans-serif" font-size="18" lengthAdjust="spacingAndGlyphs" textLength="400" x="229.5" y="16.708">OOP 2016 - Temporary Database - DIAGRAM</text><rect fill="#FEFECE" filter="url(#f1)" height="73.6094" style="stroke: #A80036; stroke-width: 1.5;" width="276" x="87.5" y="277.9531"/><ellipse cx="192.75" cy="293.9531" fill="#B4A7E5" rx="11" ry="11" style="stroke: #A80036; stroke-width: 1.0;"/><path d="M188.6719,289.7188 L188.6719,287.5625 L196.0625,287.5625 L196.0625,289.7188 L193.5938,289.7188 L193.5938,297.7969 L196.0625,297.7969 L196.0625,299.9531 L188.6719,299.9531 L188.6719,297.7969 L191.1406,297.7969 L191.1406,289.7188 L188.6719,289.7188 Z "/><text fill="#000000" font-family="sans-serif" font-size="12" font-style="italic" lengthAdjust="spacingAndGlyphs" textLength="57" x="213.25" y="298.1074">SMObject</text><line style="stroke: #A80036; stroke-width: 1.5;" x1="88.5" x2="362.5" y1="309.9531" y2="309.9531"/><line style="stroke: #A80036; stroke-width: 1.5;" x1="88.5" x2="362.5" y1="317.9531" y2="317.9531"/><ellipse cx="98.5" cy="329.8555" fill="#84BE84" rx="3" ry="3" style="stroke: #038048; stroke-width: 1.0;"/><text fill="#000000" font-family="sans-serif" font-size="11" lengthAdjust="spacingAndGlyphs" textLength="250" x="107.5" y="332.1636">virtual std::stringstream getSerializedData()</text><ellipse cx="98.5" cy="342.6602" fill="#84BE84" rx="3" ry="3" style="stroke: #038048; stroke-width: 1.0;"/><text fill="#000000" font-family="sans-serif" font-size="11" lengthAdjust="spacingAndGlyphs" textLength="109" x="107.5" y="344.9683">virtual ~SMObject()</text><rect fill="#FEFECE" filter="url(#f1)" height="99.2188" style="stroke: #A80036; stroke-width: 1.5;" width="270" x="90.5" y="411.9531"/><ellipse cx="181.75" cy="427.9531" fill="#ADD1B2" rx="11" ry="11" style="stroke: #A80036; stroke-width: 1.0;"/><path d="M184.7188,433.5938 Q184.1406,433.8906 183.5,434.0391 Q182.8594,434.1875 182.1563,434.1875 Q179.6563,434.1875 178.3359,432.5391 Q177.0156,430.8906 177.0156,427.7656 Q177.0156,424.6406 178.3359,422.9844 Q179.6563,421.3281 182.1563,421.3281 Q182.8594,421.3281 183.5078,421.4844 Q184.1563,421.6406 184.7188,421.9375 L184.7188,424.6563 Q184.0938,424.0781 183.5,423.8047 Q182.9063,423.5313 182.2813,423.5313 Q180.9375,423.5313 180.25,424.6016 Q179.5625,425.6719 179.5625,427.7656 Q179.5625,429.8594 180.25,430.9297 Q180.9375,432 182.2813,432 Q182.9063,432 183.5,431.7266 Q184.0938,431.4531 184.7188,430.875 L184.7188,433.5938 Z "/><text fill="#000000" font-family="sans-serif" font-size="12" lengthAdjust="spacingAndGlyphs" textLength="79" x="202.25" y="432.1074">SMContainer</text><line style="stroke: #A80036; stroke-width: 1.5;" x1="91.5" x2="359.5" y1="443.9531" y2="443.9531"/><ellipse cx="101.5" cy="455.8555" fill="none" rx="3" ry="3" style="stroke: #038048; stroke-width: 1.0;"/><text fill="#000000" font-family="sans-serif" font-size="11" lengthAdjust="spacingAndGlyphs" textLength="84" x="110.5" y="458.1636">SMString data;</text><ellipse cx="101.5" cy="468.6602" fill="none" rx="3" ry="3" style="stroke: #038048; stroke-width: 1.0;"/><text fill="#000000" font-family="sans-serif" font-size="11" lengthAdjust="spacingAndGlyphs" textLength="83" x="110.5" y="470.9683">SMString type;</text><line style="stroke: #A80036; stroke-width: 1.5;" x1="91.5" x2="359.5" y1="477.5625" y2="477.5625"/><ellipse cx="101.5" cy="489.4648" fill="#84BE84" rx="3" ry="3" style="stroke: #038048; stroke-width: 1.0;"/><text fill="#000000" font-family="sans-serif" font-size="11" lengthAdjust="spacingAndGlyphs" textLength="244" x="110.5" y="491.7729">SMContainer(SMObject* obj, CharAllocator)</text><ellipse cx="101.5" cy="502.2695" fill="#84BE84" rx="3" ry="3" style="stroke: #038048; stroke-width: 1.0;"/><text fill="#000000" font-family="sans-serif" font-size="11" lengthAdjust="spacingAndGlyphs" textLength="127" x="110.5" y="504.5776">void getObject(T&amp; obj)</text><rect fill="#FEFECE" filter="url(#f1)" height="188.8516" style="stroke: #A80036; stroke-width: 1.5;" width="361" x="480" y="28.9531"/><ellipse cx="624.75" cy="44.9531" fill="#ADD1B2" rx="11" ry="11" style="stroke: #A80036; stroke-width: 1.0;"/><path d="M627.7188,50.5938 Q627.1406,50.8906 626.5,51.0391 Q625.8594,51.1875 625.1563,51.1875 Q622.6563,51.1875 621.3359,49.5391 Q620.0156,47.8906 620.0156,44.7656 Q620.0156,41.6406 621.3359,39.9844 Q622.6563,38.3281 625.1563,38.3281 Q625.8594,38.3281 626.5078,38.4844 Q627.1563,38.6406 627.7188,38.9375 L627.7188,41.6563 Q627.0938,41.0781 626.5,40.8047 Q625.9063,40.5313 625.2813,40.5313 Q623.9375,40.5313 623.25,41.6016 Q622.5625,42.6719 622.5625,44.7656 Q622.5625,46.8594 623.25,47.9297 Q623.9375,49 625.2813,49 Q625.9063,49 626.5,48.7266 Q627.0938,48.4531 627.7188,47.875 L627.7188,50.5938 Z "/><text fill="#000000" font-family="sans-serif" font-size="12" lengthAdjust="spacingAndGlyphs" textLength="63" x="645.25" y="49.1074">SMSystem</text><line style="stroke: #A80036; stroke-width: 1.5;" x1="481" x2="840" y1="60.9531" y2="60.9531"/><rect fill="none" height="6" style="stroke: #C82930; stroke-width: 1.0;" width="6" x="488" y="69.8555"/><text fill="#000000" font-family="sans-serif" font-size="11" lengthAdjust="spacingAndGlyphs" textLength="203" x="500" y="75.1636">managed_shared_memory memory</text><rect fill="none" height="6" style="stroke: #C82930; stroke-width: 1.0;" width="6" x="488" y="82.6602"/><text fill="#000000" font-family="sans-serif" font-size="11" lengthAdjust="spacingAndGlyphs" textLength="144" x="500" y="87.9683">interprocess_mutex* mtx</text><rect fill="none" height="6" style="stroke: #C82930; stroke-width: 1.0;" width="6" x="488" y="95.4648"/><text fill="#000000" font-family="sans-serif" font-size="11" lengthAdjust="spacingAndGlyphs" textLength="154" x="500" y="100.7729">CharAllocator dataAllocator</text><line style="stroke: #A80036; stroke-width: 1.5;" x1="481" x2="840" y1="107.3672" y2="107.3672"/><ellipse cx="491" cy="119.2695" fill="#84BE84" rx="3" ry="3" style="stroke: #038048; stroke-width: 1.0;"/><text fill="#000000" font-family="sans-serif" font-size="11" lengthAdjust="spacingAndGlyphs" textLength="68" x="500" y="121.5776">SMSystem()</text><ellipse cx="491" cy="132.0742" fill="#84BE84" rx="3" ry="3" style="stroke: #038048; stroke-width: 1.0;"/><text fill="#000000" font-family="sans-serif" font-size="11" lengthAdjust="spacingAndGlyphs" textLength="77" x="500" y="134.3823">~SMSystem()</text><ellipse cx="491" cy="144.8789" fill="#84BE84" rx="3" ry="3" style="stroke: #038048; stroke-width: 1.0;"/><text fill="#000000" font-family="sans-serif" font-size="11" lengthAdjust="spacingAndGlyphs" textLength="167" x="500" y="147.187">void remove(const char* key)</text><ellipse cx="491" cy="157.6836" fill="#84BE84" rx="3" ry="3" style="stroke: #038048; stroke-width: 1.0;"/><text fill="#000000" font-family="sans-serif" font-size="11" lengthAdjust="spacingAndGlyphs" textLength="173" x="500" y="159.9917">bool contains(const char* key)</text><text fill="#000000" font-family="sans-serif" font-size="11" lengthAdjust="spacingAndGlyphs" textLength="0" x="504" y="172.7964"/><ellipse cx="491" cy="183.293" fill="#84BE84" rx="3" ry="3" style="stroke: #038048; stroke-width: 1.0;"/><text fill="#000000" font-family="sans-serif" font-size="11" lengthAdjust="spacingAndGlyphs" textLength="328" x="500" y="185.6011">template&lt;class T&gt; void fetch(const char* key, T&amp; object)</text><ellipse cx="491" cy="196.0977" fill="#84BE84" rx="3" ry="3" style="stroke: #038048; stroke-width: 1.0;"/><text fill="#000000" font-family="sans-serif" font-size="11" lengthAdjust="spacingAndGlyphs" textLength="329" x="500" y="198.4058">template&lt;class T&gt; void insert(const char* key, T* object)</text><ellipse cx="491" cy="208.9023" fill="#84BE84" rx="3" ry="3" style="stroke: #038048; stroke-width: 1.0;"/><text fill="#000000" font-family="sans-serif" font-size="11" lengthAdjust="spacingAndGlyphs" textLength="335" x="500" y="211.2104">template&lt;class T&gt; void update(const char* key, T* object)</text><rect fill="#FEFECE" filter="url(#f1)" height="112.0234" style="stroke: #A80036; stroke-width: 1.5;" width="439" x="6" y="67.4531"/><ellipse cx="197.75" cy="83.4531" fill="#ADD1B2" rx="11" ry="11" style="stroke: #A80036; stroke-width: 1.0;"/><path d="M200.7188,89.0938 Q200.1406,89.3906 199.5,89.5391 Q198.8594,89.6875 198.1563,89.6875 Q195.6563,89.6875 194.3359,88.0391 Q193.0156,86.3906 193.0156,83.2656 Q193.0156,80.1406 194.3359,78.4844 Q195.6563,76.8281 198.1563,76.8281 Q198.8594,76.8281 199.5078,76.9844 Q200.1563,77.1406 200.7188,77.4375 L200.7188,80.1563 Q200.0938,79.5781 199.5,79.3047 Q198.9063,79.0313 198.2813,79.0313 Q196.9375,79.0313 196.25,80.1016 Q195.5625,81.1719 195.5625,83.2656 Q195.5625,85.3594 196.25,86.4297 Q196.9375,87.5 198.2813,87.5 Q198.9063,87.5 199.5,87.2266 Q200.0938,86.9531 200.7188,86.375 L200.7188,89.0938 Z "/><text fill="#000000" font-family="sans-serif" font-size="12" lengthAdjust="spacingAndGlyphs" textLength="47" x="218.25" y="87.6074">SMType</text><line style="stroke: #A80036; stroke-width: 1.5;" x1="7" x2="444" y1="99.4531" y2="99.4531"/><rect fill="none" height="6" style="stroke: #C82930; stroke-width: 1.0;" width="6" x="14" y="108.3555"/><text fill="#000000" font-family="sans-serif" font-size="11" lengthAdjust="spacingAndGlyphs" textLength="227" x="26" y="113.6636">friend class boost::serialization::access</text><line style="stroke: #A80036; stroke-width: 1.5;" x1="7" x2="444" y1="120.2578" y2="120.2578"/><ellipse cx="17" cy="132.1602" fill="#84BE84" rx="3" ry="3" style="stroke: #038048; stroke-width: 1.0;"/><text fill="#000000" font-family="sans-serif" font-size="11" lengthAdjust="spacingAndGlyphs" textLength="52" x="26" y="134.4683">SMType()</text><ellipse cx="17" cy="144.9648" fill="#84BE84" rx="3" ry="3" style="stroke: #038048; stroke-width: 1.0;"/><text fill="#000000" font-family="sans-serif" font-size="11" lengthAdjust="spacingAndGlyphs" textLength="93" x="26" y="147.2729">SMType(T value)</text><ellipse cx="17" cy="157.7695" fill="#84BE84" rx="3" ry="3" style="stroke: #038048; stroke-width: 1.0;"/><text fill="#000000" font-family="sans-serif" font-size="11" lengthAdjust="spacingAndGlyphs" textLength="262" x="26" y="160.0776">std::stringstream getSerializedData() override</text><rect fill="#F24D5C" height="6" style="stroke: #C82930; stroke-width: 1.0;" width="6" x="14" y="167.5742"/><text fill="#000000" font-family="sans-serif" font-size="11" lengthAdjust="spacingAndGlyphs" textLength="413" x="26" y="172.8823">template &lt;typename Archive&gt; void serialize(Archive, const unsigned int)</text><path d="M225.5,179.5191 C225.5,204.1531 225.5,233.1561 225.5,257.9051 " fill="none" style="stroke: #A80036; stroke-width: 1.0;"/><polygon fill="none" points="232.5,257.9221,225.5,277.9221,218.5,257.9221,232.5,257.9221" style="stroke: #A80036; stroke-width: 1.0;"/><path d="M225.5,352.0441 C225.5,368.5481 225.5,388.4451 225.5,406.6631 " fill="none" style="stroke: #A80036; stroke-width: 1.0; stroke-dasharray: 7.0,7.0;"/><polygon fill="#A80036" points="225.5,411.7523,229.5,402.7523,225.5,406.7523,221.5,402.7523,225.5,411.7523" style="stroke: #A80036; stroke-width: 1.0;"/></g></svg>